# xmcd
#
# Track frame offsets: 
#        150
#        10955
#        27627
#        39307
#        50472
#        64770
#        78207
#        96397
#        111545
#        126060
#        140015
#        155377
#        173965
#        196667
#
# Disc length: 2820 seconds
#
# Revision: 1
# Processed by: cddbd v1.5.2PL0 Copyright (c) Steve Scherf et al.
# Submitted via: ExactAudioCopy v0.99pb5
#
DISCID=bd0b020e
DTITLE=Various Artist - The Spirit of Country
DYEAR=2001
DGENRE=Country
TTITLE0=Willie Nelson - On The Road Again
TTITLE1=Hank Williams - Jambalaya
TTITLE2=Mel Mc Daniel - Louisiana Saturday Night
TTITLE3=Johny Cash - Folsom Prison
TTITLE4=Mark Bender, Steve Summer, Pete Winter - Nashville Nights
TTITLE5=Kristoffer Kristofferson - Help Me Make It Through The Night
TTITLE6=Alan Eugene Jackson, Jim Mc Bride - Chattahoogee
TTITLE7=Mark Bender, Steve Summer, Pete Winter - The Rose Of The Count
TTITLE7=ry
TTITLE8=Larry E. Williams - Let Your Love Flow
TTITLE9=Billy Sherrill, Tammy Wynette - Stand By Your Man
TTITLE10=Mark Bender, Steve Summer, Pete Winter - Rockin´ Through The 
TTITLE10=Country
TTITLE11=Roger Bowling - Blanket On The Ground
TTITLE12=James William Buffet - Margaritaville
TTITLE13=W.Bill Danoff, John Denver, Taffy Nivert - Take Me Home, Coun
TTITLE13=try Roads
EXTD=
EXTT0=
EXTT1=
EXTT2=
EXTT3=
EXTT4=
EXTT5=
EXTT6=
EXTT7=
EXTT8=
EXTT9=
EXTT10=
EXTT11=
EXTT12=
EXTT13=
PLAYORDER=
